<svg width="203" height="60" viewBox="0 0 203 60" fill="none" xmlns="http://www.w3.org/2000/svg">
<path d="M29.0066 13.0267C30.8285 13.0267 32.6831 14.9868 34.0902 18.4058C34.4659 19.3178 34.8003 20.3077 35.0913 21.358C31.4083 18.9375 26.6157 18.9396 22.9023 21.3796C24.3421 16.1517 26.7243 13.0267 29.0066 13.0267Z" fill="#6C7BFF"/>
<path d="M43.1315 29.9511C41.34 27.4268 39.327 25.0927 37.2683 23.1434C36.8622 21.181 36.3324 19.3591 35.6722 17.7577C34.6516 15.281 33.3964 13.4743 31.998 12.4153C32.1782 10.8895 33.4833 9.69869 35.0664 9.69869C35.5376 9.69869 35.9198 9.31832 35.9198 8.84934C35.9198 8.38037 35.5376 8 35.0664 8C32.8427 8 30.973 9.51498 30.4301 11.5616C29.9654 11.406 29.4898 11.3261 29.0077 11.3261C28.5235 11.3261 28.0501 11.4082 27.5897 11.5659C27.049 9.51931 25.1793 8.00216 22.9534 8.00216C22.4822 8.00216 22.1 8.38253 22.1 8.8515C22.1 9.32048 22.4822 9.70085 22.9534 9.70085C24.5408 9.70085 25.8503 10.8981 26.024 12.4326C23.6787 14.2307 21.7829 18.1057 20.7384 23.1563C18.6841 25.1036 16.6754 27.4311 14.8882 29.9511C11.7025 34.4398 9.42675 39.1793 8.47561 43.2963C7.46583 47.6684 8.07604 50.8929 10.1911 52.3798C10.9751 52.9309 11.9175 53.1945 12.9773 53.1945C17.3247 53.1945 23.6353 48.7512 29.0121 41.6149C34.378 48.749 40.6907 53.1945 45.0447 53.1945C46.1044 53.1945 47.0469 52.9309 47.833 52.3798C52.0263 49.4298 49.9611 39.5791 43.1315 29.9511ZM29.0077 13.0269C30.8297 13.0269 32.6842 14.9871 34.0913 18.4061C34.467 19.3181 34.8014 20.3079 35.0924 21.3582C31.4095 18.9377 26.6168 18.9399 22.9035 21.3798C24.3432 16.152 26.7254 13.0269 29.0077 13.0269ZM11.177 50.9923C9.68734 49.9463 9.30949 47.2794 10.139 43.6789C11.0402 39.7715 13.2226 35.246 16.2824 30.9322C17.8502 28.7235 19.5875 26.6747 21.3747 24.9155C21.8654 29.2638 24.2715 34.8829 27.9654 40.1756C21.392 49.1142 14.0283 52.9914 11.177 50.9923ZM29.0099 38.6909C25.2813 33.208 23.012 27.4722 22.986 23.4265C23.0685 23.3573 23.1532 23.2882 23.2379 23.2233C23.3486 23.1369 23.4594 23.0483 23.5723 22.9683C23.6917 22.8819 23.8155 22.8041 23.9393 22.7241C24.0566 22.6485 24.1738 22.5707 24.2933 22.5015C24.4192 22.428 24.5473 22.3632 24.6733 22.2962C24.7971 22.2314 24.9187 22.1665 25.0446 22.1082C25.1727 22.0476 25.3052 21.9958 25.4355 21.9418C25.5636 21.8899 25.6917 21.8337 25.822 21.7883C25.9545 21.7408 26.087 21.7019 26.2194 21.6608C26.3519 21.6197 26.4844 21.5765 26.619 21.5398C26.7515 21.5052 26.8839 21.4793 27.0186 21.449C27.1554 21.4187 27.2943 21.3863 27.4333 21.3626C27.5658 21.3409 27.6983 21.3258 27.8307 21.3085C27.9719 21.2912 28.113 21.2696 28.2542 21.2588C28.3845 21.248 28.5169 21.2459 28.6472 21.2415C28.7927 21.235 28.9382 21.2286 29.0837 21.2286C29.1945 21.2286 29.3052 21.2372 29.4138 21.2437C29.5745 21.2502 29.7352 21.2567 29.8937 21.2718C30.0045 21.2826 30.1152 21.2999 30.226 21.315C30.3845 21.3366 30.543 21.3561 30.6994 21.3842C30.8101 21.4036 30.9209 21.4317 31.0294 21.4555C31.1836 21.4901 31.34 21.5225 31.4941 21.5657C31.6049 21.596 31.7135 21.6327 31.8242 21.6673C31.9741 21.7148 32.1261 21.7602 32.2737 21.8164C32.3845 21.8575 32.4931 21.905 32.6016 21.9504C32.7471 22.0109 32.8905 22.0693 33.0338 22.1384C33.1424 22.1903 33.2488 22.2486 33.3573 22.3048C33.4942 22.3761 33.6331 22.4496 33.7678 22.5274C33.8764 22.5901 33.9806 22.6593 34.0848 22.7284C34.2151 22.8127 34.3432 22.8948 34.4714 22.9856C34.5778 23.0612 34.6798 23.1434 34.7841 23.2233C34.8688 23.2882 34.9513 23.3573 35.0338 23.4265C35.0077 27.4744 32.7319 33.2188 29.0099 38.6909ZM46.8493 50.9923C43.9937 52.9935 36.6342 49.1164 30.0587 40.1734C33.7461 34.8937 36.1565 29.2703 36.6451 24.9177C38.4301 26.6769 40.1695 28.7257 41.7352 30.9344C48.4323 40.3744 49.7852 48.9284 46.8471 50.9945L46.8493 50.9923Z" fill="#3040D0"/>
<path d="M70.4 8.56V50H66.48V8.56H70.4ZM105.765 19.424V50H101.845V44.624C100.949 46.528 99.5675 47.984 97.7009 48.992C95.8342 50 93.7435 50.504 91.4289 50.504C87.7702 50.504 84.7835 49.384 82.4689 47.144C80.1542 44.8667 78.9969 41.5813 78.9969 37.288V19.424H82.8609V36.84C82.8609 40.1627 83.6822 42.7013 85.3249 44.456C87.0049 46.2107 89.2822 47.088 92.1569 47.088C95.1062 47.088 97.4582 46.1547 99.2129 44.288C100.968 42.4213 101.845 39.6773 101.845 36.056V19.424H105.765ZM151.114 18.864C154.698 18.864 157.61 20.0027 159.85 22.28C162.128 24.52 163.266 27.7867 163.266 32.08V50H159.402V32.528C159.402 29.2053 158.6 26.6667 156.994 24.912C155.389 23.1573 153.205 22.28 150.442 22.28C147.568 22.28 145.272 23.232 143.554 25.136C141.837 27.04 140.978 29.8027 140.978 33.424V50H137.114V32.528C137.114 29.2053 136.312 26.6667 134.706 24.912C133.101 23.1573 130.898 22.28 128.098 22.28C125.224 22.28 122.928 23.232 121.21 25.136C119.493 27.04 118.634 29.8027 118.634 33.424V50H114.714V19.424H118.634V24.688C119.605 22.784 120.986 21.3467 122.778 20.376C124.57 19.368 126.568 18.864 128.77 18.864C131.421 18.864 133.736 19.4987 135.714 20.768C137.73 22.0373 139.186 23.904 140.082 26.368C140.904 23.9413 142.304 22.0933 144.282 20.824C146.298 19.5173 148.576 18.864 151.114 18.864ZM199.636 33.144C199.636 34.488 199.599 35.5147 199.524 36.224H174.156C174.268 38.5387 174.828 40.5173 175.836 42.16C176.844 43.8027 178.17 45.0533 179.812 45.912C181.455 46.7333 183.247 47.144 185.188 47.144C187.727 47.144 189.855 46.528 191.572 45.296C193.327 44.064 194.484 42.4027 195.044 40.312H199.188C198.442 43.2987 196.836 45.744 194.372 47.648C191.946 49.5147 188.884 50.448 185.188 50.448C182.314 50.448 179.738 49.8133 177.46 48.544C175.183 47.2373 173.391 45.408 172.084 43.056C170.815 40.6667 170.18 37.8853 170.18 34.712C170.18 31.5387 170.815 28.7573 172.084 26.368C173.354 23.9787 175.127 22.1493 177.404 20.88C179.682 19.6107 182.276 18.976 185.188 18.976C188.1 18.976 190.639 19.6107 192.804 20.88C195.007 22.1493 196.687 23.8667 197.844 26.032C199.039 28.16 199.636 30.5307 199.636 33.144ZM195.66 33.032C195.698 30.7547 195.231 28.8133 194.26 27.208C193.327 25.6027 192.039 24.3893 190.396 23.568C188.754 22.7467 186.962 22.336 185.02 22.336C182.108 22.336 179.626 23.2693 177.572 25.136C175.519 27.0027 174.38 29.6347 174.156 33.032H195.66Z" fill="#3040D0"/>
</svg>
